<mxfile host="app.diagrams.net" modified="2024-05-28T06:49:56.262Z" agent="Mozilla/5.0 (Macintosh; Intel Mac OS X 10_15_7) AppleWebKit/537.36 (KHTML, like Gecko) Chrome/125.0.0.0 Safari/537.36" etag="yRkdhArpjclPNgW_Kzeq" version="24.4.9" type="github">
  <diagram name="Page-1" id="uJyLnhsqLh9RBzsLGACN">
    <mxGraphModel dx="1272" dy="699" grid="1" gridSize="10" guides="1" tooltips="1" connect="1" arrows="1" fold="1" page="1" pageScale="1" pageWidth="827" pageHeight="1169" math="0" shadow="0">
      <root>
        <mxCell id="0" />
        <mxCell id="1" parent="0" />
        <mxCell id="S2Rt7h8H9Zjsjy2fmUEh-1" value="Person" style="swimlane;fontStyle=1;align=center;verticalAlign=top;childLayout=stackLayout;horizontal=1;startSize=26;horizontalStack=0;resizeParent=1;resizeParentMax=0;resizeLast=0;collapsible=1;marginBottom=0;whiteSpace=wrap;html=1;" vertex="1" parent="1">
          <mxGeometry x="344" y="150" width="160" height="104" as="geometry" />
        </mxCell>
        <mxCell id="S2Rt7h8H9Zjsjy2fmUEh-2" value="- name: String&lt;div&gt;- age: Integer&lt;/div&gt;" style="text;strokeColor=none;fillColor=none;align=left;verticalAlign=top;spacingLeft=4;spacingRight=4;overflow=hidden;rotatable=0;points=[[0,0.5],[1,0.5]];portConstraint=eastwest;whiteSpace=wrap;html=1;" vertex="1" parent="S2Rt7h8H9Zjsjy2fmUEh-1">
          <mxGeometry y="26" width="160" height="44" as="geometry" />
        </mxCell>
        <mxCell id="S2Rt7h8H9Zjsjy2fmUEh-3" value="" style="line;strokeWidth=1;fillColor=none;align=left;verticalAlign=middle;spacingTop=-1;spacingLeft=3;spacingRight=3;rotatable=0;labelPosition=right;points=[];portConstraint=eastwest;strokeColor=inherit;" vertex="1" parent="S2Rt7h8H9Zjsjy2fmUEh-1">
          <mxGeometry y="70" width="160" height="8" as="geometry" />
        </mxCell>
        <mxCell id="S2Rt7h8H9Zjsjy2fmUEh-4" value="+ get_details(): String" style="text;strokeColor=none;fillColor=none;align=left;verticalAlign=top;spacingLeft=4;spacingRight=4;overflow=hidden;rotatable=0;points=[[0,0.5],[1,0.5]];portConstraint=eastwest;whiteSpace=wrap;html=1;" vertex="1" parent="S2Rt7h8H9Zjsjy2fmUEh-1">
          <mxGeometry y="78" width="160" height="26" as="geometry" />
        </mxCell>
        <mxCell id="S2Rt7h8H9Zjsjy2fmUEh-5" value="Employee" style="swimlane;fontStyle=1;align=center;verticalAlign=top;childLayout=stackLayout;horizontal=1;startSize=26;horizontalStack=0;resizeParent=1;resizeParentMax=0;resizeLast=0;collapsible=1;marginBottom=0;whiteSpace=wrap;html=1;" vertex="1" parent="1">
          <mxGeometry x="574" y="150" width="160" height="86" as="geometry" />
        </mxCell>
        <mxCell id="S2Rt7h8H9Zjsjy2fmUEh-6" value="- employee_id: String" style="text;strokeColor=none;fillColor=none;align=left;verticalAlign=top;spacingLeft=4;spacingRight=4;overflow=hidden;rotatable=0;points=[[0,0.5],[1,0.5]];portConstraint=eastwest;whiteSpace=wrap;html=1;" vertex="1" parent="S2Rt7h8H9Zjsjy2fmUEh-5">
          <mxGeometry y="26" width="160" height="26" as="geometry" />
        </mxCell>
        <mxCell id="S2Rt7h8H9Zjsjy2fmUEh-7" value="" style="line;strokeWidth=1;fillColor=none;align=left;verticalAlign=middle;spacingTop=-1;spacingLeft=3;spacingRight=3;rotatable=0;labelPosition=right;points=[];portConstraint=eastwest;strokeColor=inherit;" vertex="1" parent="S2Rt7h8H9Zjsjy2fmUEh-5">
          <mxGeometry y="52" width="160" height="8" as="geometry" />
        </mxCell>
        <mxCell id="S2Rt7h8H9Zjsjy2fmUEh-8" value="+ get_details(): String" style="text;strokeColor=none;fillColor=none;align=left;verticalAlign=top;spacingLeft=4;spacingRight=4;overflow=hidden;rotatable=0;points=[[0,0.5],[1,0.5]];portConstraint=eastwest;whiteSpace=wrap;html=1;" vertex="1" parent="S2Rt7h8H9Zjsjy2fmUEh-5">
          <mxGeometry y="60" width="160" height="26" as="geometry" />
        </mxCell>
        <mxCell id="S2Rt7h8H9Zjsjy2fmUEh-9" value="Customer" style="swimlane;fontStyle=1;align=center;verticalAlign=top;childLayout=stackLayout;horizontal=1;startSize=26;horizontalStack=0;resizeParent=1;resizeParentMax=0;resizeLast=0;collapsible=1;marginBottom=0;whiteSpace=wrap;html=1;" vertex="1" parent="1">
          <mxGeometry x="94" y="159" width="160" height="86" as="geometry" />
        </mxCell>
        <mxCell id="S2Rt7h8H9Zjsjy2fmUEh-10" value="- customer_id: String" style="text;strokeColor=none;fillColor=none;align=left;verticalAlign=top;spacingLeft=4;spacingRight=4;overflow=hidden;rotatable=0;points=[[0,0.5],[1,0.5]];portConstraint=eastwest;whiteSpace=wrap;html=1;" vertex="1" parent="S2Rt7h8H9Zjsjy2fmUEh-9">
          <mxGeometry y="26" width="160" height="26" as="geometry" />
        </mxCell>
        <mxCell id="S2Rt7h8H9Zjsjy2fmUEh-11" value="" style="line;strokeWidth=1;fillColor=none;align=left;verticalAlign=middle;spacingTop=-1;spacingLeft=3;spacingRight=3;rotatable=0;labelPosition=right;points=[];portConstraint=eastwest;strokeColor=inherit;" vertex="1" parent="S2Rt7h8H9Zjsjy2fmUEh-9">
          <mxGeometry y="52" width="160" height="8" as="geometry" />
        </mxCell>
        <mxCell id="S2Rt7h8H9Zjsjy2fmUEh-12" value="+ get_details(): String" style="text;strokeColor=none;fillColor=none;align=left;verticalAlign=top;spacingLeft=4;spacingRight=4;overflow=hidden;rotatable=0;points=[[0,0.5],[1,0.5]];portConstraint=eastwest;whiteSpace=wrap;html=1;" vertex="1" parent="S2Rt7h8H9Zjsjy2fmUEh-9">
          <mxGeometry y="60" width="160" height="26" as="geometry" />
        </mxCell>
        <mxCell id="S2Rt7h8H9Zjsjy2fmUEh-13" value="" style="endArrow=block;endSize=16;endFill=0;html=1;rounded=0;entryX=1.013;entryY=0.727;entryDx=0;entryDy=0;entryPerimeter=0;exitX=0.001;exitY=0.971;exitDx=0;exitDy=0;exitPerimeter=0;" edge="1" parent="1" source="S2Rt7h8H9Zjsjy2fmUEh-6">
          <mxGeometry width="160" relative="1" as="geometry">
            <mxPoint x="568.88" y="201.81800000000004" as="sourcePoint" />
            <mxPoint x="503.9999999999999" y="201.80800000000005" as="targetPoint" />
          </mxGeometry>
        </mxCell>
        <mxCell id="S2Rt7h8H9Zjsjy2fmUEh-14" value="" style="endArrow=block;endSize=16;endFill=0;html=1;rounded=0;entryX=1.004;entryY=0.654;entryDx=0;entryDy=0;entryPerimeter=0;exitX=0;exitY=0.582;exitDx=0;exitDy=0;exitPerimeter=0;" edge="1" parent="1" source="S2Rt7h8H9Zjsjy2fmUEh-2" target="S2Rt7h8H9Zjsjy2fmUEh-10">
          <mxGeometry width="160" relative="1" as="geometry">
            <mxPoint x="334" y="201.5" as="sourcePoint" />
            <mxPoint x="259" y="201.5" as="targetPoint" />
          </mxGeometry>
        </mxCell>
      </root>
    </mxGraphModel>
  </diagram>
</mxfile>
